<svg class="border shadow-md" viewBox="0 0 1351.68 760.32" style="width: 1351.68px; height: 760.32px;" xmlns="http://www.w3.org/2000/svg" preserveAspectRatio="none"><rect class="bg" id="bg" x="0" y="0" width="1351.68" height="760.32" fill="#ffffff"/><g transform="rotate(0 675.84 380.16)"><path id="-1" d="M -193.96 -46.03 S -177.00 -117.03&#10;            0.00 -46.03 64.96 -90.03&#10;            193.96 -46.03 280.94 -84.05&#10;            387.92 -46.03 420.88 -87.03&#10;            581.88 -46.03 608.84 -86.03&#10;            775.84 -46.03 852.80 -88.03&#10;            969.80 -46.03 1012.76 -84.05&#10;            1163.76 -46.03 1250.74 -84.05&#10;            1357.72 -46.03 1444.68 -84.05&#10;            1551.68 -46.03 1630.64 -99.03&#10;            1745.64 -46.03 h 110 V 960.32 H -193.96 Z" fill="#000000"/><path id="0" d="M -193.96 30.00 S -106.98 -42.00&#10;            0.00 30.00 86.98 -17.00&#10;            193.96 30.00 233.92 -23.00&#10;            387.92 30.00 474.90 -11.00&#10;            581.88 30.00 639.84 -38.00&#10;            775.84 30.00 856.80 -8.02&#10;            969.80 30.00 1056.78 -8.02&#10;            1163.76 30.00 1250.74 -8.02&#10;            1357.72 30.00 1413.68 -31.00&#10;            1551.68 30.00 1576.64 -8.02&#10;            1745.64 30.00 h 110 V 960.32 H -193.96 Z" fill="#141414"/><path id="1" d="M -193.96 106.03 S -173.00 68.02&#10;            0.00 106.03 86.98 68.02&#10;            193.96 106.03 280.94 61.03&#10;            387.92 106.03 441.88 68.02&#10;            581.88 106.03 594.84 68.02&#10;            775.84 106.03 779.80 68.02&#10;            969.80 106.03 1056.78 48.03&#10;            1163.76 106.03 1240.72 68.02&#10;            1357.72 106.03 1444.70 68.02&#10;            1551.68 106.03 1609.64 68.02&#10;            1745.64 106.03 h 110 V 960.32 H -193.96 Z" fill="#282828"/><path id="2" d="M -193.96 182.06 S -200.00 144.05&#10;            0.00 182.06 51.96 118.06&#10;            193.96 182.06 280.94 144.05&#10;            387.92 182.06 466.88 144.05&#10;            581.88 182.06 626.84 125.06&#10;            775.84 182.06 780.80 123.06&#10;            969.80 182.06 1056.78 144.05&#10;            1163.76 182.06 1250.74 116.06&#10;            1357.72 182.06 1374.68 113.06&#10;            1551.68 182.06 1608.64 116.06&#10;            1745.64 182.06 h 110 V 960.32 H -193.96 Z" fill="#3c3c3c"/><path id="3" d="M -193.96 258.10 S -116.00 205.10&#10;            0.00 258.10 -7.04 205.10&#10;            193.96 258.10 280.94 213.10&#10;            387.92 258.10 468.88 219.10&#10;            581.88 258.10 668.86 190.10&#10;            775.84 258.10 828.80 220.08&#10;            969.80 258.10 1056.78 197.10&#10;            1163.76 258.10 1176.72 220.08&#10;            1357.72 258.10 1444.70 190.10&#10;            1551.68 258.10 1561.64 220.08&#10;            1745.64 258.10 h 110 V 960.32 H -193.96 Z" fill="#505050"/><path id="4" d="M -193.96 334.13 S -134.00 296.11&#10;            0.00 334.13 86.98 280.13&#10;            193.96 334.13 280.94 283.13&#10;            387.92 334.13 428.88 296.11&#10;            581.88 334.13 634.84 296.11&#10;            775.84 334.13 797.80 290.13&#10;            969.80 334.13 1056.78 296.11&#10;            1163.76 334.13 1250.74 296.11&#10;            1357.72 334.13 1396.68 260.13&#10;            1551.68 334.13 1638.66 296.11&#10;            1745.64 334.13 h 110 V 960.32 H -193.96 Z" fill="#646464"/><path id="5" d="M -193.96 410.16 S -106.98 372.14&#10;            0.00 410.16 86.98 372.14&#10;            193.96 410.16 280.94 368.16&#10;            387.92 410.16 448.88 372.14&#10;            581.88 410.16 662.84 335.16&#10;            775.84 410.16 862.82 372.14&#10;            969.80 410.16 1029.76 372.14&#10;            1163.76 410.16 1250.74 338.16&#10;            1357.72 410.16 1417.68 366.16&#10;            1551.68 410.16 1551.64 362.16&#10;            1745.64 410.16 h 110 V 960.32 H -193.96 Z" fill="#787878"/><path id="6" d="M -193.96 486.19 S -106.98 422.19&#10;            0.00 486.19 86.98 448.18&#10;            193.96 486.19 196.92 448.18&#10;            387.92 486.19 474.90 417.19&#10;            581.88 486.19 668.86 448.18&#10;            775.84 486.19 841.80 418.19&#10;            969.80 486.19 1056.78 448.18&#10;            1163.76 486.19 1235.72 448.18&#10;            1357.72 486.19 1440.68 448.18&#10;            1551.68 486.19 1616.64 448.18&#10;            1745.64 486.19 h 110 V 960.32 H -193.96 Z" fill="#8c8c8c"/><path id="7" d="M -193.96 562.22 S -106.98 524.21&#10;            0.00 562.22 86.98 524.21&#10;            193.96 562.22 198.92 489.22&#10;            387.92 562.22 474.90 493.22&#10;            581.88 562.22 615.84 524.21&#10;            775.84 562.22 862.82 522.22&#10;            969.80 562.22 982.76 524.21&#10;            1163.76 562.22 1250.74 488.22&#10;            1357.72 562.22 1444.70 492.22&#10;            1551.68 562.22 1604.64 501.22&#10;            1745.64 562.22 h 110 V 960.32 H -193.96 Z" fill="#a0a0a0"/><path id="8" d="M -193.96 638.26 S -106.98 597.26&#10;            0.00 638.26 86.98 593.26&#10;            193.96 638.26 280.94 600.24&#10;            387.92 638.26 474.90 568.26&#10;            581.88 638.26 668.86 600.24&#10;            775.84 638.26 862.82 600.24&#10;            969.80 638.26 1056.78 600.24&#10;            1163.76 638.26 1236.72 600.24&#10;            1357.72 638.26 1444.70 600.24&#10;            1551.68 638.26 1638.66 600.24&#10;            1745.64 638.26 h 110 V 960.32 H -193.96 Z" fill="#b4b4b4"/><path id="9" d="M -193.96 714.29 S -106.98 676.27&#10;            0.00 714.29 86.98 676.27&#10;            193.96 714.29 231.92 676.27&#10;            387.92 714.29 474.90 663.29&#10;            581.88 714.29 577.84 643.29&#10;            775.84 714.29 841.80 639.29&#10;            969.80 714.29 1039.76 645.29&#10;            1163.76 714.29 1250.74 664.29&#10;            1357.72 714.29 1444.70 676.27&#10;            1551.68 714.29 1573.64 654.29&#10;            1745.64 714.29 h 110 V 960.32 H -193.96 Z" fill="#c8c8c8"/></g></svg>